SplineFontDB: 3.2
FontName: VerticalSans
FullName: VerticalSans
FamilyName: VerticalSans
Weight: Bold
Copyright: Copyright (c) 2023, Aloteri
UComments: "2023-7-15: Created with FontForge (http://fontforge.org)+AAoA-2023-7-18: Created by Aloteri (https://space.bilibili.com/426356416)"
Version: 1.0.1
ItalicAngle: 0
UnderlinePosition: -117
UnderlineWidth: 57
Ascent: 1216
Descent: 64
InvalidEm: 0
LayerCount: 2
Layer: 0 0 "Back" 1
Layer: 1 0 "Fore" 0
XUID: [1021 380 1837923554 9492]
StyleMap: 0x0000
FSType: 0
OS2Version: 0
OS2_WeightWidthSlopeOnly: 0
OS2_UseTypoMetrics: 1
CreationTime: 1689428010
ModificationTime: 1689772538
PfmFamily: 33
TTFWeight: 400
TTFWidth: 5
LineGap: 109
VLineGap: 0
OS2TypoAscent: 0
OS2TypoAOffset: 1
OS2TypoDescent: 0
OS2TypoDOffset: 1
OS2TypoLinegap: 109
OS2WinAscent: 0
OS2WinAOffset: 1
OS2WinDescent: 0
OS2WinDOffset: 1
HheadAscent: 0
HheadAOffset: 1
HheadDescent: 0
HheadDOffset: 1
OS2SubXSize: 832
OS2SubYSize: 896
OS2SubXOff: -141
OS2SubYOff: 179
OS2SupXSize: 832
OS2SupYSize: 896
OS2SupXOff: 483
OS2SupYOff: 614
OS2StrikeYSize: 63
OS2StrikeYPos: 331
OS2Vendor: 'PfEd'
OS2CodePages: 00000001.00000000
MarkAttachClasses: 1
DEI: 91125
LangName: 1033 "" "" "" "" "" "" "" "" "" "Aloteri" "" "https://github.com/aloterispace" "https://space.bilibili.com/426356416"
Encoding: ISO8859-1
UnicodeInterp: none
NameList: AGL For New Fonts
DisplaySize: -48
AntiAlias: 1
FitToEm: 0
WinInfo: 0 28 11
BeginPrivate: 0
EndPrivate
Grid
-1280 704.022705078 m 0
 2560 704.022705078 l 1024
  Named: "704"
EndSplineSet
TeXData: 1 0 0 346030 173015 115343 0 1048576 115343 783286 444596 497025 792723 393216 433062 380633 303038 157286 324010 404750 52429 2506097 1059062 262144
BeginChars: 258 95

StartChar: A
Encoding: 65 65 0
Width: 896
VWidth: 1202
Flags: W
HStem: 0 21G<64 316 572 832> 515.65 128.62<316.4 571.789> 1027.64 124.359<316.4 571.789>
VStem: 64 252<0 515.65 644.271 1027.64> 572 260<0 515.65 644.271 1027.64>
LayerCount: 2
Fore
SplineSet
700 1028.00097656 m 5
 832 1028.00097656 l 5
 832 0 l 5
 572 0 l 5
 572 515.650390625 l 5
 316 515.650390625 l 5
 316 0 l 5
 64 0 l 5
 64 1028.00097656 l 5
 188 1028.00097656 l 5
 188 1152 l 5
 700 1152 l 5
 700 1028.00097656 l 5
571.7890625 644.270507812 m 5
 571.7890625 1027.640625 l 5
 316.400390625 1027.640625 l 5
 316.400390625 644.270507812 l 5
 571.7890625 644.270507812 l 5
EndSplineSet
Validated: 1
EndChar

StartChar: B
Encoding: 66 66 1
Width: 896
VWidth: 1202
Flags: W
HStem: 0 132.199<316.2 571.7> 515.699 128.601<316.2 571.6> 1027.7 124.301<316.2 571.6>
VStem: 64 252.2<132.199 515.699 644.3 1027.7> 571.7 260.3<132.199 515.699 644.3 1027.7>
LayerCount: 2
Fore
SplineSet
832 644 m 5
 700.299804688 644 l 5
 700.299804688 515.999023438 l 5
 832 515.999023438 l 5
 832 0 l 5
 64 0 l 5
 64 1152 l 5
 700 1152 l 5
 700 1028 l 5
 832 1028 l 5
 832 644 l 5
316.200195312 1027.69921875 m 5
 316.200195312 644.299804688 l 5
 571.599609375 644.299804688 l 5
 571.599609375 1027.69921875 l 5
 316.200195312 1027.69921875 l 5
571.700195312 132.19921875 m 5
 571.700195312 515.69921875 l 5
 316.200195312 515.69921875 l 5
 316.200195312 132.19921875 l 5
 571.700195312 132.19921875 l 5
EndSplineSet
Validated: 1
EndChar

StartChar: a
Encoding: 97 97 2
Width: 896
VWidth: 1202
Flags: W
HStem: 0 132<316 572> 772 124<316 572>
VStem: 64 252<132 772> 572 260<132 772> 700 132<0 132>
LayerCount: 2
Fore
SplineSet
832 896 m 1xe8
 832 0 l 1
 700 0 l 1
 700 132 l 1xe8
 572 132 l 5
 572 772 l 1
 316 772 l 1
 316 132 l 1
 572 132 l 1
 572 0 l 1xf0
 64 0 l 1
 64 896 l 1
 832 896 l 1xe8
EndSplineSet
Validated: 5
EndChar

StartChar: b
Encoding: 98 98 3
Width: 896
VWidth: 1202
Flags: W
HStem: 0 132.3<316.4 571.801> 771.6 128.4<316.4 571.801> 1132 20G<64 316>
VStem: 64 252.4<132.3 771.6 900 1152> 571.801 260.199<132.3 771.6>
LayerCount: 2
Fore
SplineSet
316 900 m 1
 832 900 l 1
 832 0 l 1
 64 0 l 1
 64 1152 l 1
 316 1152 l 1
 316 900 l 1
571.80078125 132.299804688 m 1
 571.80078125 771.599609375 l 1
 316.400390625 771.599609375 l 1
 316.400390625 132.299804688 l 1
 571.80078125 132.299804688 l 1
EndSplineSet
Validated: 1
EndChar

StartChar: C
Encoding: 67 67 4
Width: 896
VWidth: 1202
Flags: W
HStem: -0.00976562 132.01<316.28 832> 1028.14 123.851<316.28 832>
VStem: 64 252.28<132 1028.14>
LayerCount: 2
Fore
SplineSet
316.280273438 1028.13964844 m 5
 316.280273438 132 l 5
 832 132 l 5
 832 0 l 5
 576.030273438 -0.009765625 320.05078125 -0.009765625 64 -0.009765625 c 5
 64 1151.99023438 l 5
 832 1151.99023438 l 5
 832 1028.13964844 l 5
 316.280273438 1028.13964844 l 5
EndSplineSet
Validated: 1
EndChar

StartChar: c
Encoding: 99 99 5
Width: 896
VWidth: 1202
Flags: W
HStem: 0 132<316 832> 772 124<316 832>
VStem: 64 252<132 772>
LayerCount: 2
Fore
SplineSet
316 772 m 5
 316 132 l 5
 832 132 l 5
 832 0 l 5
 64 0 l 5
 64 896 l 5
 832 896 l 5
 832 772 l 5
 316 772 l 5
EndSplineSet
Validated: 1
EndChar

StartChar: K
Encoding: 75 75 6
Width: 896
VWidth: 1202
Flags: W
HStem: 0 21G<64 316 572 832> 1132 20G<64 316 572 832>
VStem: 64 252<0 516 772 1152> 444 256<388 516 772 900> 572 260<0 388 900 1152>
LayerCount: 2
Fore
SplineSet
572 772 m 5xe8
 572 516 l 5xe8
 700 516 l 5
 700 388 l 5xf0
 832 388 l 5
 832 0 l 5
 572 0 l 5
 572 388 l 5xe8
 444 388 l 5
 444 516 l 5
 316 516 l 5
 316 0 l 5
 64 0 l 5
 64 1152 l 5
 316 1152 l 5
 316 772 l 5
 444 772 l 5
 444 900 l 5xf0
 572 900 l 5
 572 1152 l 5
 832 1152 l 5
 832 900 l 5xe8
 700 900 l 5
 700 772 l 5xf0
 572 772 l 5xe8
EndSplineSet
Validated: 1
EndChar

StartChar: D
Encoding: 68 68 7
Width: 896
VWidth: 1202
Flags: W
HStem: 0 132.229<316.26 571.65> 1027.6 124.4<316.26 571.65>
VStem: 64 252.26<132.229 1027.6> 571.65 260.35<132.229 1027.6>
LayerCount: 2
Fore
SplineSet
700 1028 m 5
 832 1028 l 5
 832 132 l 5
 700 132 l 5
 700 0 l 5
 64 0 l 5
 64 1152 l 5
 700 1152 l 5
 700 1028 l 5
571.650390625 132.229492188 m 5
 571.650390625 1027.59960938 l 5
 316.259765625 1027.59960938 l 5
 316.259765625 132.229492188 l 5
 571.650390625 132.229492188 l 5
EndSplineSet
Validated: 1
EndChar

StartChar: E
Encoding: 69 69 8
Width: 896
VWidth: 1202
Flags: W
HStem: 0 132.01<316.291 832> 516.07 128.02<316.291 832> 1028.15 123.851<316.291 832>
VStem: 64 252.291<132.01 516.07 644.09 1028.15>
LayerCount: 2
Fore
SplineSet
316.291015625 1028.14941406 m 5
 316.291015625 644.08984375 l 5
 832 644.08984375 l 5
 832 516.0703125 l 5
 316.291015625 516.0703125 l 5
 316.291015625 132.009765625 l 5
 832 132.009765625 l 5
 832 0.009765625 l 5
 576.029296875 0 320.05078125 0 64 0 c 5
 64 1152 l 5
 832 1152 l 5
 832 1028.14941406 l 5
 316.291015625 1028.14941406 l 5
EndSplineSet
Validated: 1
EndChar

StartChar: F
Encoding: 70 70 9
Width: 896
VWidth: 1202
Flags: W
HStem: 0.299805 21G<64 316> 0.299805 21G<64 316> 516.301 127.999<316 832> 1028.3 124<316 832>
VStem: 64 252<0.299805 516.301 644.3 1028.3>
LayerCount: 2
Fore
SplineSet
316 1028.29980469 m 5xb8
 316 644.299804688 l 5
 832 644.299804688 l 5
 832 516.30078125 l 5
 316 516.30078125 l 5
 316 0.2998046875 l 5
 64 0.2998046875 l 5
 64 1152.29980469 l 5
 832 1152.29980469 l 5
 832 1028.29980469 l 5
 316 1028.29980469 l 5xb8
EndSplineSet
Validated: 1
EndChar

StartChar: G
Encoding: 71 71 10
Width: 896
VWidth: 1202
Flags: W
HStem: 0 132.341<316.291 571.621> 516.16 127.84<444.32 571.621> 900 252<571.73 832> 1027.72 124.28<316.291 571.73>
VStem: 64 252.291<132.341 1027.72> 571.621 260.379<132.341 516.16 900 1027.72>
LayerCount: 2
Fore
SplineSet
571.73046875 900 m 1xec
 571.73046875 1027.71972656 l 1
 316.291015625 1027.71972656 l 1
 316.291015625 132.340820312 l 1
 571.62109375 132.340820312 l 1
 571.62109375 516.16015625 l 1
 444.3203125 516.16015625 l 1
 444.3203125 644 l 1
 832 644 l 1
 832 0 l 1
 64 0 l 1
 64 1152 l 1xdc
 832 1152 l 1
 832 900 l 1
 571.73046875 900 l 1xec
571.62109375 516.16015625 m 1024
832 644 m 1024
EndSplineSet
Validated: 1
EndChar

StartChar: H
Encoding: 72 72 11
Width: 896
VWidth: 1202
Flags: W
HStem: 0 21G<64 316.01 572.029 832> 515.65 128.699<316.01 572.029> 1132 20G<64 316.01 572.029 832>
VStem: 64 252.01<0 515.65 644.35 1152> 572.029 259.971<0 515.65 644.35 1152>
LayerCount: 2
Fore
SplineSet
832 1152 m 1
 832 0 l 1
 572.029296875 0 l 1
 572.029296875 515.650390625 l 1
 316.009765625 515.650390625 l 1
 316.009765625 0 l 1
 64 0 l 1
 64 1152 l 1
 316.009765625 1152 l 1
 316.009765625 644.349609375 l 1
 572.029296875 644.349609375 l 1
 572.029296875 1152 l 1
 832 1152 l 1
EndSplineSet
Validated: 1
EndChar

StartChar: I
Encoding: 73 73 12
Width: 896
VWidth: 1202
Flags: W
HStem: 0 131.971<64 315.68 572.32 832> 1028 124<64 315.68 572.32 832>
VStem: 315.68 256.641<131.971 1028>
LayerCount: 2
Fore
SplineSet
572.3203125 1028 m 1
 572.3203125 131.970703125 l 1
 832 131.970703125 l 1
 832 0 l 1
 64 0 l 1
 64 131.970703125 l 1
 315.6796875 131.970703125 l 1
 315.6796875 1028 l 1
 64 1028 l 1
 64 1152 l 1
 832 1152 l 1
 832 1028 l 1
 572.3203125 1028 l 1
EndSplineSet
Validated: 1
EndChar

StartChar: J
Encoding: 74 74 13
Width: 896
VWidth: 1202
Flags: W
HStem: 0 132<64.001 315.681> 1028 124<64.001 315.681 572 831.999>
VStem: 315.681 256.319<132 1028>
LayerCount: 2
Fore
SplineSet
831.999023438 1152 m 5
 831.999023438 1028 l 5
 572 1028 l 5
 572 0 l 5
 64.0009765625 0 l 5
 64.0009765625 132 l 5
 315.680664062 132 l 5
 315.680664062 1028 l 5
 64.0009765625 1028 l 5
 64.0009765625 1152 l 5
 831.999023438 1152 l 5
EndSplineSet
Validated: 1
EndChar

StartChar: h
Encoding: 104 104 14
Width: 896
VWidth: 1202
Flags: W
HStem: 0 21G<64 316 572 832> 771.649 128.351<316 572> 1132 20G<64 316>
VStem: 64 252<0 771.649 900 1152> 572 260<0 771.649>
LayerCount: 2
Fore
SplineSet
832 900 m 5
 832 0 l 5
 572 0 l 5
 572 771.649414062 l 5
 316 771.649414062 l 5
 316 0 l 5
 64 0 l 5
 64 1152 l 5
 316 1152 l 5
 316 900 l 5
 832 900 l 5
EndSplineSet
Validated: 1
EndChar

StartChar: e
Encoding: 101 101 15
Width: 896
VWidth: 1202
Flags: W
HStem: 0 132<316 832> 388 128<316 572> 772 124<316 572>
VStem: 64 252<132 388 516 772> 572 260<516 772>
LayerCount: 2
Fore
SplineSet
832 388 m 6
 316 388 l 5
 316 132 l 5
 832 132 l 5
 832 0 l 5
 64 0 l 5
 64 896 l 5
 832 896 l 5
 832 388 l 6
316 772 m 5
 316 516 l 5
 572 516 l 5
 572 772 l 5
 316 772 l 5
EndSplineSet
Validated: 1
EndChar

StartChar: f
Encoding: 102 102 16
Width: 896
VWidth: 1202
Flags: W
HStem: 0 21G<316 572> 644 128<64 316 572.34 832> 1028 124<572.34 832>
VStem: 316 256<0 644 772 1028>
LayerCount: 2
Fore
SplineSet
572.33984375 1028 m 1
 572.33984375 772 l 1
 832 772 l 1
 832 644 l 1
 572 644 l 1
 572 0 l 1
 316 0 l 1
 316 644 l 1
 64 644 l 1
 64 772 l 1
 316 772 l 1
 316 1152 l 1
 832 1152 l 1
 832 1028 l 1
 572.33984375 1028 l 1
EndSplineSet
Validated: 1
EndChar

StartChar: d
Encoding: 100 100 17
Width: 896
VWidth: 1202
Flags: W
HStem: 0 132.271<316.391 571.781> 771.641 128.359<316.391 571.781> 1132 20G<572 832>
VStem: 64 252.391<132.271 771.641> 571.781 260.219<132.271 771.641 900 1152>
LayerCount: 2
Fore
SplineSet
572 1152 m 1
 832 1152 l 1
 832 0 l 1
 64 0 l 1
 64 900 l 1
 572 900 l 1
 572 1152 l 1
571.78125 132.270507812 m 1
 571.78125 771.640625 l 1
 316.390625 771.640625 l 1
 316.390625 132.270507812 l 1
 571.78125 132.270507812 l 1
EndSplineSet
Validated: 1
EndChar

StartChar: g
Encoding: 103 103 18
Width: 896
VWidth: 1202
Flags: W
HStem: 0 260<64 316> 0 132<316 572> 388 128<316 572> 772 124<316 572>
VStem: 64 252<132 260 516 772> 572 260<132 388 516 772>
LayerCount: 2
Fore
SplineSet
64 896 m 5x7c
 832 896 l 5
 832 0 l 5x7c
 64 0 l 5
 64 260 l 5
 316 260 l 5xbc
 316 132 l 5
 572 132 l 5
 572 388 l 5
 64 388 l 5
 64 896 l 5x7c
572 516 m 5
 572 772 l 5
 316 772 l 5
 316 516 l 5
 572 516 l 5
EndSplineSet
Validated: 1
EndChar

StartChar: i
Encoding: 105 105 19
Width: 384
VWidth: 1202
Flags: W
HStem: 0 21G<64 320> 899.92 252.08<64 320>
VStem: 64 256<0 771.92 900 1152>
LayerCount: 2
Fore
SplineSet
320 772 m 5
 320 0 l 5
 64 0 l 5
 64 772 l 5
 65 771.969726562 65.990234375 771.919921875 66.990234375 771.919921875 c 6
 317.009765625 771.919921875 l 6
 318.009765625 771.919921875 319 771.969726562 320 772 c 5
320 1152 m 5
 320 900 l 6
 318.919921875 899.969726562 317.83984375 899.919921875 316.759765625 899.919921875 c 6
 66.990234375 899.919921875 l 6
 65.990234375 899.919921875 65 899.969726562 64 900 c 6
 64 1152 l 5
 320 1152 l 5
EndSplineSet
Validated: 1
EndChar

StartChar: L
Encoding: 76 76 20
Width: 896
Flags: W
HStem: 0 132<316 832> 1132 20G<64 316>
VStem: 64 252<132 1152>
LayerCount: 2
Fore
SplineSet
64 1152 m 5
 147.990234375 1152 232.009765625 1152 316 1152 c 5
 316 812.030273438 316 471.969726562 316 132 c 5
 487.98046875 132 660.01953125 132 832 132 c 5
 832 88 832 44 832 0 c 5
 576.029296875 0 319.970703125 0 64 0 c 5
 64 383.959960938 64 768.040039062 64 1152 c 5
EndSplineSet
Validated: 1
EndChar

StartChar: j
Encoding: 106 106 21
Width: 512
Flags: W
HStem: -0.0888672 132<64 188> 899.911 252<188 448>
VStem: 188 260<131.911 771.911 899.911 1151.91>
LayerCount: 2
Fore
SplineSet
188 899.911132812 m 5
 188 1151.91113281 l 5
 448 1151.91113281 l 5
 448 899.911132812 l 5
 188 899.911132812 l 5
188 771.911132812 m 5
 448 771.911132812 l 5
 448 -0.0888671875 l 5
 64 -0.0888671875 l 5
 64 131.911132812 l 5
 188 131.911132812 l 5
 188 771.911132812 l 5
EndSplineSet
Validated: 1
EndChar

StartChar: M
Encoding: 77 77 22
Width: 1024
Flags: W
HStem: -0.0888672 21G<64 316 700 960> 771.911 256<316 444 572 700> 1131.91 20G<64 316 700 960>
VStem: 64 252<-0.0888672 771.911 1027.91 1151.91> 444 128<643.911 771.911> 700 260<-0.0888672 771.911 1027.91 1151.91>
LayerCount: 2
Fore
SplineSet
64 1151.91113281 m 5
 147.990234375 1151.91113281 232.009765625 1151.91113281 316 1151.91113281 c 5
 316 1110.58105469 316 1069.24121094 316 1027.91113281 c 5
 358.66015625 1027.91113281 401.33984375 1027.91113281 444 1027.91113281 c 5
 444 985.250976562 444 942.571289062 444 899.911132812 c 5
 486.66015625 899.911132812 529.33984375 899.911132812 572 899.911132812 c 5
 572 942.571289062 572 985.250976562 572 1027.91113281 c 5
 614.66015625 1027.91113281 657.33984375 1027.91113281 700 1027.91113281 c 5
 700 1069.24121094 700 1110.58105469 700 1151.91113281 c 5
 786.66015625 1151.91113281 873.33984375 1151.91113281 960 1151.91113281 c 5
 960 767.951171875 960 383.87109375 960 -0.0888671875 c 5
 873.33984375 -0.0888671875 786.66015625 -0.0888671875 700 -0.0888671875 c 5
 700 257.221679688 700 514.6015625 700 771.911132812 c 5
 657.33984375 771.911132812 614.66015625 771.911132812 572 771.911132812 c 5
 572 729.250976562 572 686.5703125 572 643.911132812 c 5
 529.33984375 643.911132812 486.66015625 643.911132812 444 643.911132812 c 5
 444 686.5703125 444 729.250976562 444 771.911132812 c 5
 401.33984375 771.911132812 358.66015625 771.911132812 316 771.911132812 c 5
 316 514.6015625 316 257.221679688 316 -0.0888671875 c 5
 232.009765625 -0.0888671875 147.990234375 -0.0888671875 64 -0.0888671875 c 5
 64 383.87109375 64 767.951171875 64 1151.91113281 c 5
EndSplineSet
Validated: 1
EndChar

StartChar: N
Encoding: 78 78 23
Width: 1024
Flags: W
HStem: -0.0888672 21G<64 316 700 960> 1131.91 20G<64 316 700 960>
VStem: 64 252<-0.0888672 643.911 899.911 1151.91> 700 260<-0.0888672 387.911 643.911 1151.91>
LayerCount: 2
Fore
SplineSet
64 1151.91113281 m 5
 147.990234375 1151.91113281 232.009765625 1151.91113281 316 1151.91113281 c 5
 316 1067.92089844 316 983.901367188 316 899.911132812 c 5
 358.66015625 899.911132812 401.33984375 899.911132812 444 899.911132812 c 5
 444 857.250976562 444 814.571289062 444 771.911132812 c 5
 486.66015625 771.911132812 529.33984375 771.911132812 572 771.911132812 c 5
 572 729.250976562 572 686.5703125 572 643.911132812 c 5
 614.66015625 643.911132812 657.33984375 643.911132812 700 643.911132812 c 5
 700 813.23046875 700 982.590820312 700 1151.91113281 c 5
 786.66015625 1151.91113281 873.33984375 1151.91113281 960 1151.91113281 c 5
 960 767.951171875 960 383.87109375 960 -0.0888671875 c 5
 873.33984375 -0.0888671875 786.66015625 -0.0888671875 700 -0.0888671875 c 5
 700 129.23046875 700 258.590820312 700 387.911132812 c 5
 657.33984375 387.911132812 614.66015625 387.911132812 572 387.911132812 c 5
 572 430.571289062 572 473.250976562 572 515.911132812 c 5
 529.33984375 515.911132812 486.66015625 515.911132812 444 515.911132812 c 5
 444 558.571289062 444 601.250976562 444 643.911132812 c 5
 401.33984375 643.911132812 358.66015625 643.911132812 316 643.911132812 c 5
 316 429.26171875 316 214.561523438 316 -0.0888671875 c 5
 232.009765625 -0.0888671875 147.990234375 -0.0888671875 64 -0.0888671875 c 5
 64 383.87109375 64 767.951171875 64 1151.91113281 c 5
EndSplineSet
Validated: 1
EndChar

StartChar: O
Encoding: 79 79 24
Width: 896
Flags: W
HStem: 0 132<316 572> 1028 124<316 572>
VStem: 64 252<132 1028> 572 260<132 1028>
LayerCount: 2
Fore
SplineSet
64 1152 m 1
 832 1152 l 1
 832 0 l 1
 64 0 l 1
 64 1152 l 1
572 132 m 1
 572 1028 l 1
 316 1028 l 1
 316 132 l 1
 572 132 l 1
EndSplineSet
Validated: 1
EndChar

StartChar: P
Encoding: 80 80 25
Width: 896
Flags: W
HStem: 0 21G<64 316> 388 128<316 572> 1028 124<316 572>
VStem: 64 252<0 388 516 1028> 572 260<516 1028>
LayerCount: 2
Fore
SplineSet
64 1152 m 5
 832 1152 l 5
 832 388 l 5
 316 388 l 5
 316 0 l 5
 64 0 l 5
 64 1152 l 5
572 516 m 5
 572 1028 l 5
 316 1028 l 5
 316 516 l 5
 572 516 l 5
EndSplineSet
Validated: 1
EndChar

StartChar: Q
Encoding: 81 81 26
Width: 896
Flags: W
HStem: 0 132<700 832> 132 128<316 572> 1028 124<316 572>
VStem: 64 252<260 1028> 572 260<0 132 260 1028>
LayerCount: 2
Fore
SplineSet
832 260 m 5x78
 700 260 l 5x78
 700 132 l 5
 832 132 l 5
 832 0 l 5
 572 0 l 5xb8
 572 132 l 5
 64 132 l 5
 64 1152 l 5
 832 1152 l 5
 832 260 l 5x78
572 260 m 5
 572 1028 l 5
 316 1028 l 5
 316 260 l 5
 572 260 l 5
EndSplineSet
Validated: 1
EndChar

StartChar: R
Encoding: 82 82 27
Width: 896
Flags: W
HStem: 0 21G<64 316 572 832> 516 128<316 572> 1028 124<316 572>
VStem: 64 252<0 516 644 1028> 572 260<0 516 644 1028>
LayerCount: 2
Fore
SplineSet
832 644 m 1
 700 644 l 1
 700 516 l 1
 832 516 l 1
 832 0 l 1
 572 0 l 1
 572 516 l 1
 316 516 l 1
 316 0 l 1
 64 0 l 1
 64 1152 l 1
 700 1152 l 1
 700 1028 l 1
 832 1028 l 1
 832 644 l 1
572 644 m 1
 572 1028 l 1
 316 1028 l 1
 316 644 l 1
 572 644 l 1
EndSplineSet
Validated: 1
EndChar

StartChar: S
Encoding: 83 83 28
Width: 896
Flags: W
HStem: 0 388<64 316> 0 132<316 572> 516 128<316 572> 772 380<572 832> 1028 124<316 572>
VStem: 64 252<132 388 644 1028> 572 260<132 516 772 1028>
LayerCount: 2
Fore
SplineSet
572 772 m 1x36
 572 1028 l 1
 316 1028 l 1
 316 644 l 1
 832 644 l 1
 832 0 l 1x6e
 64 0 l 1
 64 388 l 1
 316 388 l 1xa6
 316 132 l 1
 572 132 l 1
 572 516 l 1
 64 516 l 1
 64 1152 l 1x6e
 832 1152 l 1
 832 772 l 1
 572 772 l 1x36
EndSplineSet
Validated: 1
EndChar

StartChar: T
Encoding: 84 84 29
Width: 896
Flags: W
HStem: 0 21G<316 572> 1028 124<64 316 572 832>
VStem: 316 256<0 1028>
LayerCount: 2
Fore
SplineSet
832 1152 m 5
 832 1028 l 5
 572 1028 l 5
 572 0 l 5
 316 0 l 5
 316 1028 l 5
 64 1028 l 5
 64 1152 l 5
 832 1152 l 5
EndSplineSet
Validated: 1
EndChar

StartChar: U
Encoding: 85 85 30
Width: 896
Flags: W
HStem: 0 132<316 572> 1132 20G<64 316 572 832>
VStem: 64 252<132 1152> 572 260<132 1152>
LayerCount: 2
Fore
SplineSet
832 1152 m 5
 832 0 l 5
 64 0 l 5
 64 1152 l 5
 316 1152 l 5
 316 132 l 5
 572 132 l 5
 572 1152 l 5
 832 1152 l 5
EndSplineSet
Validated: 1
EndChar

StartChar: V
Encoding: 86 86 31
Width: 896
Flags: W
HStem: 0 260<316 572> 1132 20G<64 316 572 832>
VStem: 64 252<260 1152> 572 260<260 1152>
LayerCount: 2
Fore
SplineSet
832 1152 m 5
 832 260 l 5
 700 260 l 5
 700 132 l 5
 572 132 l 5
 572 0 l 5
 316 0 l 5
 316 132 l 5
 188 132 l 5
 188 260 l 5
 64 260 l 5
 64 1152 l 5
 316 1152 l 5
 316 260 l 5
 572 260 l 5
 572 1152 l 5
 832 1152 l 5
EndSplineSet
Validated: 1
EndChar

StartChar: Y
Encoding: 89 89 32
Width: 896
Flags: W
HStem: 0 21G<316 572> 772 380<64 316 572 832>
VStem: 64 252<900 1152> 316 256<0 772> 572 260<900 1152>
LayerCount: 2
Fore
SplineSet
832 1152 m 5xe8
 832 772 l 5xe8
 572 772 l 5
 572 0 l 5
 316 0 l 5
 316 772 l 5xd0
 64 772 l 5
 64 1152 l 5
 316 1152 l 5
 316 900 l 5
 572 900 l 5
 572 1152 l 5
 832 1152 l 5xe8
EndSplineSet
Validated: 1
EndChar

StartChar: Z
Encoding: 90 90 33
Width: 896
Flags: W
HStem: 0 132<316 832> 1028 124<64 572>
VStem: 64 252<132 388> 572 260<772 1028>
LayerCount: 2
Fore
SplineSet
316 388 m 5
 316 132 l 5
 832 132 l 5
 832 0 l 5
 64 0 l 5
 64 388 l 5
 188 388 l 5
 188 516 l 5
 316 516 l 5
 316 644 l 5
 444 644 l 5
 444 772 l 5
 572 772 l 5
 572 1028 l 5
 64 1028 l 5
 64 1152 l 5
 832 1152 l 5
 832 772 l 5
 700 772 l 5
 700 644 l 5
 572 644 l 5
 572 516 l 5
 444 516 l 5
 444 388 l 5
 316 388 l 5
EndSplineSet
Validated: 1
EndChar

StartChar: W
Encoding: 87 87 34
Width: 1152
Flags: W
HStem: 0 132<316 444.001 700.001 828> 1132 20G<64 316 444.001 700.001 828 1088>
VStem: 64 252<132 1152> 444.001 256<132 1152> 828 260<132 1152>
LayerCount: 2
Fore
SplineSet
1088 1152 m 5
 1088 0 l 5
 64 0 l 5
 64 1152 l 5
 316 1152 l 5
 316 132 l 5
 444.000976562 132 l 5
 444.000976562 1152 l 5
 700.000976562 1152 l 5
 700.000976562 132 l 5
 828 132 l 5
 828 1152 l 5
 1088 1152 l 5
EndSplineSet
Validated: 1
EndChar

StartChar: X
Encoding: 88 88 35
Width: 1024
Flags: W
HStem: -0.0888672 388<64 188 828 960> 771.911 380<64 188 828 960>
VStem: 64 380<259.911 387.911 771.911 899.911> 64 252<-0.0888672 259.911 899.911 1151.91> 572 388<259.911 387.911 771.911 899.911> 700 260<-0.0888672 259.911 899.911 1151.91>
LayerCount: 2
Fore
SplineSet
700 643.911132812 m 5xc4
 700 515.911132812 l 5xc4
 828 515.911132812 l 5
 828 387.911132812 l 5
 960 387.911132812 l 5xc8
 960 -0.0888671875 l 5
 700 -0.0888671875 l 5
 700 259.911132812 l 5xc4
 572 259.911132812 l 5
 572 387.911132812 l 5
 444 387.911132812 l 5
 444 259.911132812 l 5xe8
 316 259.911132812 l 5
 316 -0.0888671875 l 5
 64 -0.0888671875 l 5xd0
 64 387.911132812 l 5xe0
 188 387.911132812 l 5
 188 515.911132812 l 5
 316 515.911132812 l 5
 316 643.911132812 l 5xd0
 188 643.911132812 l 5
 188 771.911132812 l 5
 64 771.911132812 l 5xe0
 64 1151.91113281 l 5
 316 1151.91113281 l 5
 316 899.911132812 l 5xd0
 444 899.911132812 l 5
 444 771.911132812 l 5
 572 771.911132812 l 5
 572 899.911132812 l 5xe8
 700 899.911132812 l 5
 700 1151.91113281 l 5
 960 1151.91113281 l 5xc4
 960 771.911132812 l 5xc8
 828 771.911132812 l 5
 828 643.911132812 l 5
 700 643.911132812 l 5xc4
EndSplineSet
Validated: 1
EndChar

StartChar: k
Encoding: 107 107 36
Width: 768
Flags: W
HStem: 0.299805 21G<64 316 444 704> 0.299805 21G<64 316 444 704> 1132.3 20G<64 316>
VStem: 64 252<0.299805 260.3 644.3 1152.3> 444 260<0.299805 260.3 644.3 900.3>
LayerCount: 2
Fore
SplineSet
444 516.30078125 m 5xb8
 444 388.299804688 l 5
 572 388.299804688 l 5
 572 260.299804688 l 5
 704 260.299804688 l 5
 704 0.2998046875 l 5
 444 0.2998046875 l 5
 444 260.299804688 l 5
 316 260.299804688 l 5
 316 0.2998046875 l 5
 64 0.2998046875 l 5
 64 1152.29980469 l 5
 316 1152.29980469 l 5
 316 644.299804688 l 5
 444 644.299804688 l 5
 444 900.299804688 l 5
 704 900.299804688 l 5
 704 644.299804688 l 5
 572 644.299804688 l 5
 572 516.30078125 l 5
 444 516.30078125 l 5xb8
EndSplineSet
Validated: 1
EndChar

StartChar: l
Encoding: 108 108 37
Width: 384
Flags: W
HStem: 0.299805 21G<64 320> 0.299805 21G<64 320> 1132.3 20G<64 320>
VStem: 64 256<0.299805 1152.3>
LayerCount: 2
Fore
SplineSet
64 1152.29980469 m 5xb0
 320 1152.29980469 l 5
 320 0.2998046875 l 5
 64 0.2998046875 l 5
 64 1152.29980469 l 5xb0
EndSplineSet
Validated: 1
EndChar

StartChar: m
Encoding: 109 109 38
Width: 1024
Flags: W
HStem: 0 21G<64 316 444 572 700 960> 0 21G<64 316 444 572 700 960> 772 124.001<316 444 572 700>
VStem: 64 252<0 772> 444 128<0 772> 700 260<0 772>
LayerCount: 2
Fore
SplineSet
64 896.000976562 m 5xbc
 362.640625 896.000976562 661.359375 896.000976562 960 896.000976562 c 5
 960 597.360351562 960 298.640625 960 0 c 5
 873.33984375 0 786.66015625 0 700 0 c 5
 700 257.310546875 700 514.690429688 700 772 c 5
 657.33984375 772 614.66015625 772 572 772 c 5
 572 514.690429688 572 257.310546875 572 0 c 5
 529.33984375 0 486.66015625 0 444 0 c 5
 444 257.310546875 444 514.690429688 444 772 c 5
 401.33984375 772 358.66015625 772 316 772 c 5
 316 514.690429688 316 257.310546875 316 0 c 5
 232.009765625 0 147.990234375 0 64 0 c 5
 64 298.640625 64 597.360351562 64 896.000976562 c 5xbc
EndSplineSet
Validated: 1
EndChar

StartChar: n
Encoding: 110 110 39
Width: 896
Flags: W
HStem: 0 21G<64 316 572 832> 0 21G<64 316 572 832> 772 124.001<316 572>
VStem: 64 252<0 772> 572 260<0 772>
LayerCount: 2
Fore
SplineSet
64 896.000976562 m 5xb8
 320 896.000976562 576 896.000976562 832 896.000976562 c 5
 832 4.22265625 l 4
 832 0 l 5
 745.30078125 0 658.69921875 0 572 0 c 5
 572 257.299804688 572 514.700195312 572 772 c 5
 486.701171875 772 401.298828125 772 316 772 c 5
 316 514.700195312 316 257.299804688 316 0 c 5
 232 0 148 0 64 0 c 5
 64 298.599609375 64 597.400390625 64 896.000976562 c 5xb8
EndSplineSet
Validated: 1
EndChar

StartChar: o
Encoding: 111 111 40
Width: 896
Flags: W
HStem: 0 132.001<316 572> 772 124.001<316 572>
VStem: 64 252<132.001 772> 572 260<132.001 772>
LayerCount: 2
Fore
SplineSet
64 896.000976562 m 5
 832 896.000976562 l 5
 832 0 l 5
 64 0 l 5
 64 896.000976562 l 5
572 132.000976562 m 5
 572 772 l 5
 316 772 l 5
 316 132.000976562 l 5
 572 132.000976562 l 5
EndSplineSet
Validated: 1
EndChar

StartChar: p
Encoding: 112 112 41
Width: 896
Flags: W
HStem: 0 21G<64 316> 0 21G<64 316> 388.001 127.999<316 572> 772 124.001<316 572>
VStem: 64 252<0 388.001 516 772> 572 260<516 772>
LayerCount: 2
Fore
SplineSet
64 896.000976562 m 5xbc
 832 896.000976562 l 5
 832 388.000976562 l 5
 316 388.000976562 l 5
 316 0 l 5
 64 0 l 5
 64 896.000976562 l 5xbc
572 516 m 5
 572 772 l 5
 316 772 l 5
 316 516 l 5
 572 516 l 5
EndSplineSet
Validated: 1
EndChar

StartChar: q
Encoding: 113 113 42
Width: 896
Flags: W
HStem: 0 21G<572 832> 0 21G<572 832> 388.001 127.999<316 572> 772 124.001<316 572>
VStem: 64 252<516 772> 572 260<0 388.001 516 772>
LayerCount: 2
Fore
SplineSet
64 896.000976562 m 5xbc
 832 896.000976562 l 5
 832 0 l 5
 572 0 l 5
 572 388.000976562 l 5
 64 388.000976562 l 5
 64 896.000976562 l 5xbc
572 516 m 5
 572 772 l 5
 316 772 l 5
 316 516 l 5
 572 516 l 5
EndSplineSet
Validated: 1
EndChar

StartChar: r
Encoding: 114 114 43
Width: 768
Flags: W
HStem: 0 21G<64 316> 0 21G<64 316> 644.001 252<444 704>
VStem: 64 252<0 516 772 896.001>
LayerCount: 2
Fore
SplineSet
64 896.000976562 m 5xb0
 147.990234375 896.000976562 232.009765625 896.000976562 316 896.000976562 c 5
 316 854.670898438 316 813.331054688 316 772 c 5
 358.66015625 772 401.33984375 772 444 772 c 5
 444 813.331054688 444 854.670898438 444 896.000976562 c 5
 530.659179688 896.000976562 617.33984375 896.000976562 704 896.000976562 c 5
 704 812.010742188 704 727.990234375 704 644.000976562 c 5
 617.33984375 644.000976562 530.659179688 644.000976562 444 644.000976562 c 5
 444 601.33984375 444 558.66015625 444 516 c 5
 401.33984375 516 358.66015625 516 316 516 c 5
 316 344.020507812 316 171.98046875 316 0 c 5
 232.009765625 0 147.990234375 0 64 0 c 5
 64 298.640625 64 597.360351562 64 896.000976562 c 5xb0
EndSplineSet
Validated: 1
EndChar

StartChar: s
Encoding: 115 115 44
Width: 896
Flags: W
HStem: 0 260<64 316> 0 132.001<316 572> 388.001 127.999<316 572> 644.001 252<572 832> 772 124.001<316 572>
VStem: 64 252<132.001 260 516 772> 572 260<132.001 388.001 644.001 772>
LayerCount: 2
Fore
SplineSet
64 896.000976562 m 5x6e
 319.970703125 896.000976562 576.029296875 896.000976562 832 896.000976562 c 5
 832 812.010742188 832 727.990234375 832 644.000976562 c 5
 745.33984375 644.000976562 658.66015625 644.000976562 572 644.000976562 c 5x36
 572 686.66015625 572 729.340820312 572 772 c 5
 486.6796875 772 401.3203125 772 316 772 c 5
 316 686.680664062 316 601.321289062 316 516 c 5
 487.98046875 516 660.01953125 516 832 516 c 5
 832 344.020507812 832 171.98046875 832 0 c 5x6e
 576.029296875 0 319.970703125 0 64 0 c 5
 64 86.66015625 64 173.33984375 64 260 c 5
 147.990234375 260 232.009765625 260 316 260 c 5xa6
 316 217.340820312 316 174.66015625 316 132.000976562 c 5
 401.3203125 132.000976562 486.6796875 132.000976562 572 132.000976562 c 5
 572 217.3203125 572 302.680664062 572 388.000976562 c 5
 402.6796875 388.000976562 233.3203125 388.000976562 64 388.000976562 c 5
 64 557.3203125 64 726.6796875 64 896.000976562 c 5x6e
EndSplineSet
Validated: 1
EndChar

StartChar: t
Encoding: 116 116 45
Width: 896
Flags: W
HStem: 0.299805 132<572 832> 772.3 128<64 316 572 832> 1132.3 20G<316 572>
VStem: 316 256<132.3 772.3 900.3 1152.3>
LayerCount: 2
Fore
SplineSet
316 1152.29980469 m 5
 401.319335938 1152.29980469 486.6796875 1152.29980469 572 1152.29980469 c 5
 572 1068.30957031 572 984.290039062 572 900.299804688 c 5
 658.66015625 900.299804688 745.33984375 900.299804688 832 900.299804688 c 5
 832 857.640625 832 814.959960938 832 772.299804688 c 5
 745.33984375 772.299804688 658.66015625 772.299804688 572 772.299804688 c 5
 572 558.989257812 572 345.609375 572 132.299804688 c 5
 658.66015625 132.299804688 745.33984375 132.299804688 832 132.299804688 c 5
 832 88.2998046875 832 44.2998046875 832 0.2998046875 c 5
 660.020507812 0.2998046875 487.979492188 0.2998046875 316 0.2998046875 c 5
 316 257.610351562 316 514.990234375 316 772.299804688 c 5
 232.009765625 772.299804688 147.990234375 772.299804688 64 772.299804688 c 5
 64 814.959960938 64 857.640625 64 900.299804688 c 5
 147.990234375 900.299804688 232.009765625 900.299804688 316 900.299804688 c 5
 316 984.290039062 316 1068.30957031 316 1152.29980469 c 5
EndSplineSet
Validated: 1
EndChar

StartChar: u
Encoding: 117 117 46
Width: 896
Flags: W
HStem: 0 132.001<316 572> 876.001 20G<64 316 572 832>
VStem: 64 252<132.001 896.001> 572 260<132.001 896.001>
LayerCount: 2
Fore
SplineSet
64 896.000976562 m 5
 147.990234375 896.000976562 232.009765625 896.000976562 316 896.000976562 c 5
 316 641.360351562 316 386.639648438 316 132.000976562 c 5
 401.3203125 132.000976562 486.6796875 132.000976562 572 132.000976562 c 5
 572 386.639648438 572 641.360351562 572 896.000976562 c 5
 658.66015625 896.000976562 745.33984375 896.000976562 832 896.000976562 c 5
 832 597.360351562 832 298.640625 832 0 c 5
 576.029296875 0 319.970703125 0 64 0 c 5
 64 298.640625 64 597.360351562 64 896.000976562 c 5
EndSplineSet
Validated: 1
EndChar

StartChar: y
Encoding: 121 121 47
Width: 896
Flags: W
HStem: 0 260<64 316> 0 132.001<316 572> 388.001 127.999<316 572> 876.001 20G<64 316 572 832>
VStem: 64 252<132.001 260 516 896.001> 572 260<132.001 388.001 516 896.001>
LayerCount: 2
Fore
SplineSet
64 896.000976562 m 5x7c
 147.990234375 896.000976562 232.009765625 896.000976562 316 896.000976562 c 5
 316 769.350585938 316 642.650390625 316 516 c 5
 401.3203125 516 486.6796875 516 572 516 c 5
 572 642.650390625 572 769.350585938 572 896.000976562 c 5
 658.66015625 896.000976562 745.33984375 896.000976562 832 896.000976562 c 5
 832 597.360351562 832 298.640625 832 0 c 5x7c
 576.029296875 0 319.970703125 0 64 0 c 5
 64 86.66015625 64 173.33984375 64 260 c 5
 147.990234375 260 232.009765625 260 316 260 c 5xbc
 316 217.340820312 316 174.66015625 316 132.000976562 c 5
 401.3203125 132.000976562 486.6796875 132.000976562 572 132.000976562 c 5
 572 217.3203125 572 302.680664062 572 388.000976562 c 5
 402.6796875 388.000976562 233.3203125 388.000976562 64 388.000976562 c 5
 64 557.3203125 64 726.6796875 64 896.000976562 c 5x7c
EndSplineSet
Validated: 1
EndChar

StartChar: z
Encoding: 122 122 48
Width: 896
Flags: W
HStem: 0 388<64 316> 0 132<316 832> 388 128<316 572> 516 380<572 832> 772 124<64 572>
VStem: 64 252<132 388> 572 260<516 772>
LayerCount: 2
Fore
SplineSet
832 896 m 5x16
 832 516 l 5x16
 572 516 l 5
 572 772 l 5
 64 772 l 5
 64 896 l 5x2e
 832 896 l 5x16
316 388 m 5x86
 316 516 l 5
 572 516 l 5
 572 388 l 5x26
 316 388 l 5x86
832 132 m 5x46
 832 0 l 5x46
 64 0 l 5
 64 388 l 5
 316 388 l 5x86
 316 132 l 5
 832 132 l 5x46
EndSplineSet
Validated: 5
EndChar

StartChar: v
Encoding: 118 118 49
Width: 768
Flags: W
HStem: 0 21G<316 444> 0 21G<316 444> 876.001 20G<64 316 444 704>
VStem: 64 252<260 896.001> 316 128<0 132.001> 444 260<260 896.001>
LayerCount: 2
Fore
SplineSet
64 896.000976562 m 5xb0
 147.990234375 896.000976562 232.009765625 896.000976562 316 896.000976562 c 5
 316 684.020507812 316 471.98046875 316 260 c 5
 358.66015625 260 401.33984375 260 444 260 c 5
 444 471.98046875 444 684.020507812 444 896.000976562 c 5
 530.659179688 896.000976562 617.33984375 896.000976562 704 896.000976562 c 5
 704 684.020507812 704 471.98046875 704 260 c 5xb4
 660 260 616 260 572 260 c 5
 572 217.340820312 572 174.66015625 572 132.000976562 c 5
 529.33984375 132.000976562 486.66015625 132.000976562 444 132.000976562 c 5
 444 88 444 44 444 0 c 5
 401.33984375 0 358.66015625 0 316 0 c 5
 316 44 316 88 316 132.000976562 c 5xa8
 273.33984375 132.000976562 230.66015625 132.000976562 187.999023438 132.000976562 c 5
 187.999023438 174.66015625 187.999023438 217.340820312 187.999023438 260 c 5
 146.669921875 260 105.329101562 260 64 260 c 5
 64 471.98046875 64 684.020507812 64 896.000976562 c 5xb0
EndSplineSet
Validated: 1
EndChar

StartChar: w
Encoding: 119 119 50
Width: 1024
Flags: W
HStem: 0 132.001<316 444 572 700> 876.001 20G<64 316 444 572 700 960>
VStem: 64 252<132.001 896.001> 444 128<132.001 896.001> 700 260<132.001 896.001>
LayerCount: 2
Fore
SplineSet
64 896.000976562 m 5
 147.990234375 896.000976562 232.009765625 896.000976562 316 896.000976562 c 5
 316 641.360351562 316 386.639648438 316 132.000976562 c 5
 358.66015625 132.000976562 401.33984375 132.000976562 444 132.000976562 c 5
 444 386.639648438 444 641.360351562 444 896.000976562 c 5
 486.66015625 896.000976562 529.33984375 896.000976562 572 896.000976562 c 5
 572 641.360351562 572 386.639648438 572 132.000976562 c 5
 614.66015625 132.000976562 657.33984375 132.000976562 700 132.000976562 c 5
 700 386.639648438 700 641.360351562 700 896.000976562 c 5
 786.66015625 896.000976562 873.33984375 896.000976562 960 896.000976562 c 5
 960 597.360351562 960 298.640625 960 0 c 5
 661.359375 0 362.640625 0 64 0 c 5
 64 298.640625 64 597.360351562 64 896.000976562 c 5
EndSplineSet
Validated: 1
EndChar

StartChar: x
Encoding: 120 120 51
Width: 1024
Flags: W
HStem: 0 388.001<188 316 700 828> 0 260<64 188 828 960> 516 380.001<188 316 700 828> 644.001 252<64 188 828 960>
VStem: 64 380<132.001 260 644.001 772> 64 252<0 132.001 772 896.001> 572 388<132.001 260 644.001 772> 700 260<0 132.001 772 896.001>
LayerCount: 2
Fore
SplineSet
64 896.000976562 m 5x14
 147.990234375 896.000976562 232.009765625 896.000976562 316 896.000976562 c 5
 316 854.670898438 316 813.331054688 316 772 c 5x24
 358.66015625 772 401.33984375 772 444 772 c 5
 444 729.340820312 444 686.66015625 444 644.000976562 c 5
 486.66015625 644.000976562 529.33984375 644.000976562 572 644.000976562 c 5
 572 686.66015625 572 729.340820312 572 772 c 5x1a
 614.66015625 772 657.33984375 772 700 772 c 5
 700 813.331054688 700 854.670898438 700 896.000976562 c 5x21
 786.66015625 896.000976562 873.33984375 896.000976562 960 896.000976562 c 5x11
 960 812.010742188 960 727.990234375 960 644.000976562 c 5
 916 644.000976562 872 644.000976562 828 644.000976562 c 5x12
 828 601.33984375 828 558.66015625 828 516 c 5
 785.33984375 516 742.66015625 516 700 516 c 5
 700 473.340820312 700 430.66015625 700 388.000976562 c 5
 742.66015625 388.000976562 785.33984375 388.000976562 828 388.000976562 c 5xa1
 828 345.33984375 828 302.66015625 828 260 c 5
 872 260 916 260 960 260 c 5x42
 960 173.33984375 960 86.66015625 960 0 c 5x41
 873.33984375 0 786.66015625 0 700 0 c 5
 700 44 700 88 700 132.000976562 c 5x81
 657.33984375 132.000976562 614.66015625 132.000976562 572 132.000976562 c 5
 572 174.66015625 572 217.340820312 572 260 c 5
 529.33984375 260 486.66015625 260 444 260 c 5
 444 217.340820312 444 174.66015625 444 132.000976562 c 5x4a
 401.33984375 132.000976562 358.66015625 132.000976562 316 132.000976562 c 5
 316 88 316 44 316 0 c 5x84
 232.009765625 0 147.990234375 0 64 0 c 5x44
 64 86.66015625 64 173.33984375 64 260 c 5
 105.330078125 260 146.669921875 260 188 260 c 5x48
 188 302.66015625 188 345.33984375 188 388.000976562 c 5
 230.66015625 388.000976562 273.33984375 388.000976562 316 388.000976562 c 5
 316 430.66015625 316 473.340820312 316 516 c 5
 273.33984375 516 230.66015625 516 188 516 c 5xa4
 188 558.66015625 188 601.33984375 188 644.000976562 c 5
 146.669921875 644.000976562 105.330078125 644.000976562 64 644.000976562 c 5x18
 64 727.990234375 64 812.010742188 64 896.000976562 c 5x14
EndSplineSet
Validated: 1
EndChar

StartChar: zero
Encoding: 48 48 52
Width: 896
Flags: W
HStem: 0.299805 132<316 572> 516.301 127.999<316 444> 1028.3 124<316 572>
VStem: 64 252<132.3 516.301 644.3 1028.3> 572 260<132.3 644.3 772.3 1028.3>
LayerCount: 2
Fore
SplineSet
64 1152.29980469 m 5
 832 1152.29980469 l 5
 832 0.2998046875 l 5
 64 0.2998046875 l 5
 64 1152.29980469 l 5
572 772.299804688 m 5
 572 1028.29980469 l 5
 316 1028.29980469 l 5
 316 644.299804688 l 5
 444 644.299804688 l 5
 444 516.30078125 l 5
 316 516.30078125 l 5
 316 132.299804688 l 5
 572 132.299804688 l 5
 572 644.299804688 l 5
 444 644.299804688 l 5
 444 772.299804688 l 5
 572 772.299804688 l 5
EndSplineSet
Validated: 5
EndChar

StartChar: one
Encoding: 49 49 53
Width: 896
Flags: W
HStem: 0.299805 132<64 316 572 832> 1028.3 124<64 316>
VStem: 316 256<132.3 1028.3>
LayerCount: 2
Fore
SplineSet
832 132.299804688 m 1
 832 0.2998046875 l 1
 64 0.2998046875 l 1
 64 132.299804688 l 1
 316 132.299804688 l 1
 316 1028.29980469 l 1
 64 1028.29980469 l 1
 64 1152.29980469 l 1
 572 1152.29980469 l 1
 572 132.299804688 l 1
 832 132.299804688 l 1
EndSplineSet
Validated: 1
EndChar

StartChar: two
Encoding: 50 50 54
Width: 896
Flags: W
HStem: 0 132<316 832> 516 128<316 572> 1028 124<64 572>
VStem: 64 252<132 516> 572 260<644 1028>
LayerCount: 2
Fore
SplineSet
316 516 m 1
 316 132 l 1
 832 132 l 1
 832 0 l 1
 64 0 l 1
 64 644 l 1
 572 644 l 1
 572 1028 l 1
 64 1028 l 1
 64 1152 l 1
 832 1152 l 1
 832 516 l 1
 316 516 l 1
EndSplineSet
Validated: 1
EndChar

StartChar: three
Encoding: 51 51 55
Width: 896
Flags: W
HStem: 0.299805 132<64 572> 516.301 127.999<64 572> 1028.3 124<64 572>
VStem: 572 260<132.3 516.301 644.3 1028.3>
LayerCount: 2
Fore
SplineSet
832 1152.29980469 m 5
 832 0.2998046875 l 5
 64 0.2998046875 l 5
 64 132.299804688 l 5
 572 132.299804688 l 5
 572 516.30078125 l 5
 64 516.30078125 l 5
 64 644.299804688 l 5
 572 644.299804688 l 5
 572 1028.29980469 l 5
 64 1028.29980469 l 5
 64 1152.29980469 l 5
 832 1152.29980469 l 5
EndSplineSet
Validated: 1
EndChar

StartChar: four
Encoding: 52 52 56
Width: 896
Flags: W
HStem: 0.299805 21G<572 832> 0.299805 21G<572 832> 516.301 127.999<316 572> 1132.3 20G<64 316 572 832>
VStem: 64 252<644.3 1152.3> 572 260<0.299805 516.301 644.3 1152.3>
LayerCount: 2
Fore
SplineSet
832 1152.29980469 m 5xbc
 832 0.2998046875 l 5
 572 0.2998046875 l 5
 572 516.30078125 l 5
 64 516.30078125 l 5
 64 1152.29980469 l 5
 316 1152.29980469 l 5
 316 644.299804688 l 5
 572 644.299804688 l 5
 572 1152.29980469 l 5
 832 1152.29980469 l 5xbc
EndSplineSet
Validated: 1
EndChar

StartChar: five
Encoding: 53 53 57
Width: 896
Flags: W
HStem: 0.299805 132<64 572> 516.301 127.999<316 572> 1028.3 124<316 832>
VStem: 64 252<644.3 1028.3> 572 260<132.3 516.301>
LayerCount: 2
Fore
SplineSet
316 1028.29980469 m 5
 316 644.299804688 l 5
 832 644.299804688 l 5
 832 0.2998046875 l 5
 64 0.2998046875 l 5
 64 132.299804688 l 5
 572 132.299804688 l 5
 572 516.30078125 l 5
 64 516.30078125 l 5
 64 1152.29980469 l 5
 832 1152.29980469 l 5
 832 1028.29980469 l 5
 316 1028.29980469 l 5
EndSplineSet
Validated: 1
EndChar

StartChar: six
Encoding: 54 54 58
Width: 896
Flags: W
HStem: 0.299805 132<316 572> 516.301 127.999<316 572> 1028.3 124<316 832>
VStem: 64 252<132.3 516.301 644.3 1028.3> 572 260<132.3 516.301>
LayerCount: 2
Fore
SplineSet
832 1028.29980469 m 2
 316 1028.29980469 l 1
 316 644.299804688 l 1
 832 644.299804688 l 1
 832 0.2998046875 l 1
 64 0.2998046875 l 1
 64 1152.29980469 l 1
 832 1152.29980469 l 1
 832 1028.29980469 l 2
572 516.30078125 m 1
 316 516.30078125 l 1
 316 132.299804688 l 1
 572 132.299804688 l 1
 572 516.30078125 l 1
EndSplineSet
Validated: 1
EndChar

StartChar: seven
Encoding: 55 55 59
Width: 896
Flags: W
HStem: 0.299805 21G<572 832> 0.299805 21G<572 832> 1028.3 124<64 572>
VStem: 572 260<0.299805 1028.3>
LayerCount: 2
Fore
SplineSet
832 1152.29980469 m 5xb0
 832 0.2998046875 l 5
 572 0.2998046875 l 5
 572 1028.29980469 l 5
 64 1028.29980469 l 5
 64 1152.29980469 l 5
 832 1152.29980469 l 5xb0
EndSplineSet
Validated: 1
EndChar

StartChar: eight
Encoding: 56 56 60
Width: 896
Flags: W
HStem: 0.299805 132<316 572> 516.301 127.999<316 572> 1028.3 124<316 572>
VStem: 64 252<132.3 516.301 644.3 1028.3> 572 260<132.3 516.301 644.3 1028.3>
LayerCount: 2
Fore
SplineSet
64 1152.29980469 m 1
 832 1152.29980469 l 1
 832 0.2998046875 l 1
 64 0.2998046875 l 1
 64 1152.29980469 l 1
572 132.299804688 m 1
 572 516.30078125 l 1
 316 516.30078125 l 1
 316 132.299804688 l 1
 572 132.299804688 l 1
572 644.299804688 m 1
 572 1028.29980469 l 1
 316 1028.29980469 l 1
 316 644.299804688 l 1
 572 644.299804688 l 1
EndSplineSet
Validated: 1
EndChar

StartChar: nine
Encoding: 57 57 61
Width: 896
Flags: W
HStem: 0.299805 132<64 572> 516.301 127.999<316 572> 1028.3 124<316 572>
VStem: 64 252<644.3 1028.3> 572 260<132.3 516.301 644.3 1028.3>
LayerCount: 2
Fore
SplineSet
64 1152.29980469 m 5
 832 1152.29980469 l 5
 832 0.2998046875 l 5
 64 0.2998046875 l 5
 64 132.299804688 l 5
 572 132.299804688 l 5
 572 516.30078125 l 5
 64 516.30078125 l 5
 64 1152.29980469 l 5
572 644.299804688 m 5
 572 1028.29980469 l 5
 316 1028.29980469 l 5
 316 644.299804688 l 5
 572 644.299804688 l 5
EndSplineSet
Validated: 1
EndChar

StartChar: exclam
Encoding: 33 33 62
Width: 384
Flags: W
HStem: 0.299805 132<64 320> 1132.3 20G<64 320>
VStem: 64 256<0.299805 132.3 260.3 1152.3>
LayerCount: 2
Fore
SplineSet
64 260.299804688 m 5
 64 1152.29980469 l 5
 320 1152.29980469 l 5
 320 260.299804688 l 5
 64 260.299804688 l 5
64 0.2998046875 m 5
 64 132.299804688 l 5
 320 132.299804688 l 5
 320 0.2998046875 l 5
 64 0.2998046875 l 5
EndSplineSet
Validated: 1
EndChar

StartChar: numbersign
Encoding: 35 35 63
Width: 1024
Flags: W
HStem: 0 21G<188 444 572 828> 0 21G<188 444 572 828> 388 128<64 188 444 572 828 960> 772 128<64 188 444 572 828 960> 1132 20G<188 444 572 828>
VStem: 188 256<0 388 516 772 900 1152> 572 256<0 388 516 772 900 1152>
LayerCount: 2
Fore
SplineSet
960 772 m 5xbe
 828 772 l 5
 828 516 l 5
 960 516 l 5
 960 388 l 5
 828 388 l 5
 828 0 l 5
 572 0 l 5
 572 388 l 5
 444 388 l 5
 444 0 l 5
 188 0 l 5
 188 388 l 5
 64 388 l 5
 64 516 l 5
 188 516 l 5
 188 772 l 5
 64 772 l 5
 64 900 l 5
 188 900 l 5
 188 1152 l 5
 444 1152 l 5
 444 900 l 5
 572 900 l 5
 572 1152 l 5
 828 1152 l 5
 828 900 l 5
 960 900 l 5
 960 772 l 5xbe
572 516 m 5
 572 772 l 5
 444 772 l 5
 444 516 l 5
 572 516 l 5
EndSplineSet
Validated: 1
EndChar

StartChar: dollar
Encoding: 36 36 64
Width: 1024
Flags: W
HStem: 0.299805 21G<444 572> 0.299805 21G<444 572> 132.3 128<64 444 572 700> 516.301 127.999<316 444 572 700> 900.3 128<316 444 572 960> 1132.3 20G<444 572>
VStem: 64 252<644.3 900.3> 444 128<0.299805 132.3 260.3 516.301 644.3 900.3 1028.3 1152.3> 700 260<260.3 516.301>
LayerCount: 2
Fore
SplineSet
960 900.299804688 m 6xbf80
 572 900.299804688 l 5
 572 644.299804688 l 5
 960 644.299804688 l 5
 960 132.299804688 l 5
 572 132.299804688 l 5
 572 0.2998046875 l 5
 444 0.2998046875 l 5
 444 132.299804688 l 5
 64 132.299804688 l 5
 64 260.299804688 l 5
 444 260.299804688 l 5
 444 516.30078125 l 5
 64 516.30078125 l 5
 64 1028.29980469 l 5
 444 1028.29980469 l 5
 444 1152.29980469 l 5
 572 1152.29980469 l 5
 572 1028.29980469 l 5
 960 1028.29980469 l 5
 960 900.299804688 l 6xbf80
444 644.299804688 m 5
 444 900.299804688 l 5
 316 900.299804688 l 5
 316 644.299804688 l 5
 444 644.299804688 l 5
700 516.30078125 m 5
 572 516.30078125 l 5
 572 260.299804688 l 5
 700 260.299804688 l 5
 700 516.30078125 l 5
EndSplineSet
Validated: 1
EndChar

StartChar: percent
Encoding: 37 37 65
Width: 1152
Flags: W
HStem: 0.299805 132<828 956> 260.3 128<828 956> 772.3 128<188 316> 1028.3 124<188 316>
VStem: 64 124<900.3 1028.3> 188 256<0.299805 260.3> 316 256<260.3 516.301> 316 128<900.3 1028.3> 572 256<644.3 900.3> 700 256<900.3 1152.3> 700 128<132.3 260.3> 956 132<132.3 260.3>
LayerCount: 2
Fore
SplineSet
64 1152.29980469 m 5xf9
 444 1152.29980469 l 5
 444 772.299804688 l 5
 64 772.299804688 l 5
 64 1152.29980469 l 5xf9
316 900.299804688 m 5
 316 1028.29980469 l 5
 188 1028.29980469 l 5
 188 900.299804688 l 5
 316 900.299804688 l 5
956 1152.29980469 m 5xf040
 956 900.299804688 l 5xf040
 828 900.299804688 l 5
 828 644.299804688 l 5xf080
 700 644.299804688 l 5
 700 516.30078125 l 5
 572 516.30078125 l 5
 572 260.299804688 l 5xf220
 444 260.299804688 l 5
 444 0.2998046875 l 5
 188 0.2998046875 l 5
 188 260.299804688 l 5xf4
 316 260.299804688 l 5
 316 516.30078125 l 5xf2
 444 516.30078125 l 5
 444 644.299804688 l 5
 572 644.299804688 l 5
 572 900.299804688 l 5xf180
 700 900.299804688 l 5
 700 1152.29980469 l 5
 956 1152.29980469 l 5xf040
700 388.299804688 m 5xf030
 1088 388.299804688 l 5
 1088 0.2998046875 l 5
 700 0.2998046875 l 5
 700 388.299804688 l 5xf030
956 132.299804688 m 5
 956 260.299804688 l 5
 828 260.299804688 l 5
 828 132.299804688 l 5
 956 132.299804688 l 5
EndSplineSet
Validated: 1
EndChar

StartChar: ampersand
Encoding: 38 38 66
Width: 1024
Flags: W
HStem: 0.299805 132<316 572> 388.3 128.001<444 572 828 960> 644.3 128<444 572> 772.3 256<64 188 700 828> 1028.3 124<316 572>
VStem: 64 252<132.3 516.301 772.3 1028.3> 572 256<132.3 388.3 516.301 644.3 772.3 1028.3>
LayerCount: 2
Fore
SplineSet
960 516.30078125 m 5xe6
 960 388.299804688 l 5
 828 388.299804688 l 5
 828 132.299804688 l 5
 700 132.299804688 l 5
 700 0.2998046875 l 5
 188 0.2998046875 l 5
 188 132.299804688 l 5
 64 132.299804688 l 5
 64 644.299804688 l 5
 188 644.299804688 l 5xe6
 188 772.299804688 l 5
 64 772.299804688 l 5
 64 1028.29980469 l 5
 188 1028.29980469 l 5xd6
 188 1152.29980469 l 5
 700 1152.29980469 l 5xce
 700 1028.29980469 l 5
 828 1028.29980469 l 5
 828 772.299804688 l 5xd6
 572 772.299804688 l 5
 572 1028.29980469 l 5
 316 1028.29980469 l 5xee
 316 772.299804688 l 5xd6
 572 772.299804688 l 5
 572 644.299804688 l 5
 444 644.299804688 l 5
 444 516.30078125 l 5
 316 516.30078125 l 5
 316 132.299804688 l 5
 572 132.299804688 l 5
 572 388.299804688 l 5
 444 388.299804688 l 5
 444 516.30078125 l 5
 572 516.30078125 l 5
 572 644.299804688 l 5
 828 644.299804688 l 5
 828 516.30078125 l 5
 960 516.30078125 l 5xe6
EndSplineSet
Validated: 5
EndChar

StartChar: parenleft
Encoding: 40 40 67
Width: 640
Flags: W
HStem: 0.299805 132<316 576> 1028.3 124<316 576>
VStem: 64 252<132.3 1028.3> 188.001 387.999<0.299805 132.3 1028.3 1152.3>
LayerCount: 2
Fore
SplineSet
188.000976562 1152.29980469 m 5xd0
 317.3203125 1152.29980469 446.680664062 1152.29980469 576 1152.29980469 c 5
 576 1110.96972656 576 1069.62988281 576 1028.29980469 c 5xd0
 489.340820312 1028.29980469 402.66015625 1028.29980469 316 1028.29980469 c 5
 316 729.66015625 316 430.940429688 316 132.299804688 c 5xe0
 402.66015625 132.299804688 489.340820312 132.299804688 576 132.299804688 c 5
 576 88.2998046875 576 44.2998046875 576 0.2998046875 c 5
 446.680664062 0.2998046875 317.3203125 0.2998046875 188.000976562 0.2998046875 c 5
 188.000976562 44.2998046875 188.000976562 88.2998046875 188.000976562 132.299804688 c 5xd0
 146.669921875 132.299804688 105.331054688 132.299804688 64 132.299804688 c 5
 64 430.940429688 64 729.66015625 64 1028.29980469 c 5xe0
 105.331054688 1028.29980469 146.669921875 1028.29980469 188.000976562 1028.29980469 c 5
 188.000976562 1069.62988281 188.000976562 1110.96972656 188.000976562 1152.29980469 c 5xd0
EndSplineSet
Validated: 1
EndChar

StartChar: parenright
Encoding: 41 41 68
Width: 640
Flags: W
HStem: 0.299805 132<64 316> 1028.3 124<64 316>
VStem: 64 380<0.299805 132.3 1028.3 1152.3> 316 260<132.3 1028.3>
LayerCount: 2
Fore
SplineSet
576 1028.29980469 m 5xd0
 576 132.299804688 l 5xd0
 444 132.299804688 l 5
 444 0.2998046875 l 5
 64 0.2998046875 l 5
 64 132.299804688 l 5xe0
 316 132.299804688 l 5
 316 1028.29980469 l 5xd0
 64 1028.29980469 l 5
 64 1152.29980469 l 5
 444 1152.29980469 l 5
 444 1028.29980469 l 5xe0
 576 1028.29980469 l 5xd0
EndSplineSet
Validated: 1
EndChar

StartChar: slash
Encoding: 47 47 69
Width: 896
Flags: W
HStem: 0 21G<64 316> 0 21G<64 316> 1132 20G<572 832>
VStem: 64 252<0 260> 188 256<260 516> 444 256<644 900> 572 260<900 1152>
LayerCount: 2
Fore
SplineSet
832 1152 m 5xa2
 832 900 l 5xa2
 700 900 l 5
 700 644 l 5xa4
 572 644 l 5
 572 516 l 5
 444 516 l 5
 444 260 l 5xaa
 316 260 l 5
 316 0 l 5
 64 0 l 5
 64 260 l 5xb0
 188 260 l 5
 188 516 l 5xa8
 316 516 l 5
 316 644 l 5
 444 644 l 5
 444 900 l 5xb4
 572 900 l 5
 572 1152 l 5
 832 1152 l 5xa2
EndSplineSet
Validated: 1
EndChar

StartChar: less
Encoding: 60 60 70
Width: 896
Flags: W
HStem: 0 132<700 832> 1028 124<700 832>
VStem: 64 380<388 516 644 772> 188 384<260 388 772 900> 316 384<132 260 900 1028> 444 388<0 132 1028 1152>
LayerCount: 2
Fore
SplineSet
316 644 m 5xc8
 316 516 l 5xc8
 444 516 l 5
 444 388 l 5xe0
 572 388 l 5
 572 260 l 5xd0
 700 260 l 5
 700 132 l 5xc8
 832 132 l 5
 832 0 l 5
 444 0 l 5
 444 132 l 5xc4
 316 132 l 5
 316 260 l 5xc8
 188 260 l 5
 188 388 l 5xd0
 64 388 l 5
 64 772 l 5xe0
 188 772 l 5
 188 900 l 5xd0
 316 900 l 5
 316 1028 l 5xc8
 444 1028 l 5
 444 1152 l 5
 832 1152 l 5
 832 1028 l 5xc4
 700 1028 l 5
 700 900 l 5xc8
 572 900 l 5
 572 772 l 5xd0
 444 772 l 5
 444 644 l 5xe0
 316 644 l 5xc8
EndSplineSet
Validated: 1
EndChar

StartChar: greater
Encoding: 62 62 71
Width: 896
Flags: W
HStem: 0.299805 132<64 188> 1028.3 124<64 188>
VStem: 64 380<0.299805 132.3 1028.3 1152.3> 188 384<132.3 260.3 900.3 1028.3> 316 384<260.3 388.3 772.3 900.3> 444 388<388.3 516.301 644.3 772.3>
LayerCount: 2
Fore
SplineSet
832 772.299804688 m 5xc4
 832 388.299804688 l 5xc4
 700 388.299804688 l 5
 700 260.299804688 l 5xc8
 572 260.299804688 l 5
 572 132.299804688 l 5xd0
 444 132.299804688 l 5
 444 0.2998046875 l 5
 64 0.2998046875 l 5
 64 132.299804688 l 5xe0
 188 132.299804688 l 5
 188 260.299804688 l 5xd0
 316 260.299804688 l 5
 316 388.299804688 l 5xc8
 444 388.299804688 l 5
 444 516.30078125 l 5xc4
 572 516.30078125 l 5
 572 644.299804688 l 5xd0
 444 644.299804688 l 5
 444 772.299804688 l 5xc4
 316 772.299804688 l 5
 316 900.299804688 l 5xc8
 188 900.299804688 l 5
 188 1028.29980469 l 5xd0
 64 1028.29980469 l 5
 64 1152.29980469 l 5
 444 1152.29980469 l 5
 444 1028.29980469 l 5xe0
 572 1028.29980469 l 5
 572 900.299804688 l 5xd0
 700 900.299804688 l 5
 700 772.299804688 l 5xc8
 832 772.299804688 l 5xc4
EndSplineSet
Validated: 1
EndChar

StartChar: question
Encoding: 63 63 72
Width: 896
Flags: W
HStem: 0 132<316 572> 1028 124<316 572>
VStem: 64 252<772 1028> 316 256<0 132 260 516> 572 260<644 1028>
LayerCount: 2
Fore
SplineSet
832 1028 m 5xe8
 832 644 l 5xe8
 700 644 l 5
 700 516 l 5
 572 516 l 5
 572 260 l 5
 316 260 l 5
 316 516 l 5xd0
 444 516 l 5
 444 644 l 5
 572 644 l 5
 572 1028 l 5
 316 1028 l 5
 316 772 l 5
 64 772 l 5
 64 1028 l 5
 188 1028 l 5
 188 1152 l 5
 700 1152 l 5
 700 1028 l 5
 832 1028 l 5xe8
316 0 m 5xd0
 316 132 l 5
 572 132 l 5
 572 0 l 5
 316 0 l 5xd0
EndSplineSet
Validated: 1
EndChar

StartChar: at
Encoding: 64 64 73
Width: 1152
Flags: W
HStem: 0.299805 132<316 1088> 260.3 128<700 828> 772.3 128<700 828> 1028.3 124<316 828>
VStem: 64 252<132.3 1028.3> 444 256<388.3 772.3> 828 260<388.3 772.3 900.3 1028.3>
LayerCount: 2
Fore
SplineSet
444 900.299804688 m 5
 828 900.299804688 l 5
 828 1028.29980469 l 5
 316 1028.29980469 l 5
 316 132.299804688 l 5
 1088 132.299804688 l 5
 1088 0.2998046875 l 5
 64 0.2998046875 l 5
 64 1152.29980469 l 5
 1088 1152.29980469 l 5
 1088 260.299804688 l 5
 444 260.299804688 l 5
 444 900.299804688 l 5
828 388.299804688 m 5
 828 772.299804688 l 5
 700 772.299804688 l 5
 700 388.299804688 l 5
 828 388.299804688 l 5
EndSplineSet
Validated: 1
EndChar

StartChar: bracketleft
Encoding: 91 91 74
Width: 640
Flags: W
HStem: 0.299805 132<316 576> 1028.3 124<316 576>
VStem: 64 252<132.3 1028.3>
LayerCount: 2
Fore
SplineSet
316 1028.29980469 m 5
 316 132.299804688 l 5
 576 132.299804688 l 5
 576 0.2998046875 l 5
 64 0.2998046875 l 5
 64 1152.29980469 l 5
 576 1152.29980469 l 5
 576 1028.29980469 l 5
 316 1028.29980469 l 5
EndSplineSet
Validated: 1
EndChar

StartChar: backslash
Encoding: 92 92 75
Width: 896
Flags: W
HStem: 0 21G<572 832> 0 21G<572 832> 1132 20G<64 316>
VStem: 64 252<900 1152> 188 256<644 900> 444 256<260 516> 572 260<0 260>
LayerCount: 2
Fore
SplineSet
832 260 m 5xa2
 832 0 l 5
 572 0 l 5
 572 260 l 5xa2
 444 260 l 5
 444 516 l 5
 316 516 l 5
 316 644 l 5xb4
 188 644 l 5
 188 900 l 5xa8
 64 900 l 5
 64 1152 l 5
 316 1152 l 5
 316 900 l 5xb0
 444 900 l 5
 444 644 l 5
 572 644 l 5
 572 516 l 5xaa
 700 516 l 5
 700 260 l 5xa4
 832 260 l 5xa2
EndSplineSet
Validated: 8388609
EndChar

StartChar: bracketright
Encoding: 93 93 76
Width: 640
Flags: W
HStem: 0 132<64 316> 1028 124<64 316>
VStem: 316 260<132 1028>
LayerCount: 2
Fore
SplineSet
576 1152 m 5
 576 0 l 5
 64 0 l 5
 64 132 l 5
 316 132 l 5
 316 1028 l 5
 64 1028 l 5
 64 1152 l 5
 576 1152 l 5
EndSplineSet
Validated: 1
EndChar

StartChar: braceleft
Encoding: 123 123 77
Width: 768
Flags: W
HStem: 0 132<444 704> 1028 124<444 704>
VStem: 64 252<388 772> 187.999 256.001<132 388 772 1028> 316 388<0 132 1028 1152>
LayerCount: 2
Fore
SplineSet
316 772 m 5xe0
 316 388 l 5xe0
 444 388 l 5
 444 132 l 5xd0
 704 132 l 5
 704 0 l 5
 316 0 l 5
 316 132 l 5xc8
 187.999023438 132 l 5
 187.999023438 388 l 5xd0
 64 388 l 5
 64 772 l 5xe0
 187.999023438 772 l 5
 187.999023438 1028 l 5xd0
 316 1028 l 5
 316 1152 l 5
 704 1152 l 5
 704 1028 l 5xc8
 444 1028 l 5
 444 772 l 5xd0
 316 772 l 5xe0
EndSplineSet
Validated: 1
EndChar

StartChar: braceright
Encoding: 125 125 78
Width: 768
Flags: W
HStem: 0.299805 132<64 316> 1028.3 124<64 316>
VStem: 64 380<0.299805 132.3 1028.3 1152.3> 316 256<132.3 388.3 772.3 1028.3> 444 260<388.3 772.3>
LayerCount: 2
Fore
SplineSet
704 772.299804688 m 5xc8
 704 388.299804688 l 5xc8
 572 388.299804688 l 5
 572 132.299804688 l 5xd0
 444 132.299804688 l 5
 444 0.2998046875 l 5
 64 0.2998046875 l 5
 64 132.299804688 l 5xe0
 316 132.299804688 l 5
 316 388.299804688 l 5xd0
 444 388.299804688 l 5
 444 772.299804688 l 5xc8
 316 772.299804688 l 5
 316 1028.29980469 l 5xd0
 64 1028.29980469 l 5
 64 1152.29980469 l 5
 444 1152.29980469 l 5
 444 1028.29980469 l 5xe0
 572 1028.29980469 l 5
 572 772.299804688 l 5xd0
 704 772.299804688 l 5xc8
EndSplineSet
Validated: 1
EndChar

StartChar: bar
Encoding: 124 124 79
Width: 512
Flags: W
HStem: 0.299805 21G<128 384> 0.299805 21G<128 384> 1132.3 20G<128 384>
VStem: 128 256<0.299805 1152.3>
LayerCount: 2
Fore
SplineSet
128 1152.29980469 m 5xb0
 384 1152.29980469 l 5
 384 0.2998046875 l 5
 128 0.2998046875 l 5
 128 1152.29980469 l 5xb0
EndSplineSet
Validated: 1
EndChar

StartChar: quotedbl
Encoding: 34 34 80
Width: 768
Flags: W
HStem: 832 384<64 316 444 704>
VStem: 64 252<832 1216> 444 260<832 1216>
LayerCount: 2
Fore
SplineSet
64 832 m 5
 64 1216 l 5
 316 1216 l 5
 316 832 l 5
 64 832 l 5
444 832 m 5
 444 1216 l 5
 704 1216 l 5
 704 832 l 5
 444 832 l 5
EndSplineSet
Validated: 1
EndChar

StartChar: plus
Encoding: 43 43 81
Width: 896
Flags: W
HStem: 576.022 128<64 316 572 832>
VStem: 316 256<188.022 576.022 704.022 956.022>
LayerCount: 2
Fore
SplineSet
316 956.022460938 m 5
 401.319335938 956.022460938 486.6796875 956.022460938 572 956.022460938 c 5
 572 872.032226562 572 788.012695312 572 704.022460938 c 5
 658.66015625 704.022460938 745.33984375 704.022460938 832 704.022460938 c 5
 832 661.362304688 832 618.682617188 832 576.022460938 c 5
 745.33984375 576.022460938 658.66015625 576.022460938 572 576.022460938 c 5
 572 446.703125 572 317.342773438 572 188.022460938 c 5
 486.6796875 188.022460938 401.319335938 188.022460938 316 188.022460938 c 5
 316 317.342773438 316 446.703125 316 576.022460938 c 5
 232.009765625 576.022460938 147.990234375 576.022460938 64 576.022460938 c 5
 64 618.682617188 64 661.362304688 64 704.022460938 c 5
 147.990234375 704.022460938 232.009765625 704.022460938 316 704.022460938 c 5
 316 788.012695312 316 872.032226562 316 956.022460938 c 5
EndSplineSet
Validated: 1
EndChar

StartChar: quotesingle
Encoding: 39 39 82
Width: 384
Flags: W
HStem: 832 384<64 320>
VStem: 64 256<832 1216>
LayerCount: 2
Fore
SplineSet
64 1216 m 6
 320 1216 l 5
 320 832 l 5
 64 832 l 5
 64 1216 l 6
EndSplineSet
Validated: 1
EndChar

StartChar: asterisk
Encoding: 42 42 83
Width: 768
Flags: W
HStem: 576 260<64 188 572 704> 708 384<188 316 444 572> 964 252<64 188 572 704>
VStem: 64 124<576 708 1092 1216> 316 128<576 708 1092 1216> 572 132<576 708 1092 1216>
LayerCount: 2
Fore
SplineSet
572 964 m 5x3c
 572 836 l 5
 704 836 l 5
 704 576 l 5
 572 576 l 5xbc
 572 708 l 5
 444 708 l 5x5c
 444 576 l 5
 316 576 l 5x9c
 316 708 l 5
 188 708 l 5x5c
 188 576 l 5
 64 576 l 5
 64 836 l 5
 188 836 l 5
 188 964 l 5
 64 964 l 5
 64 1216 l 5
 188 1216 l 5xbc
 188 1092 l 5
 316 1092 l 5x5c
 316 1216 l 5
 444 1216 l 5x3c
 444 1092 l 5
 572 1092 l 5x5c
 572 1216 l 5
 704 1216 l 5
 704 964 l 5
 572 964 l 5x3c
EndSplineSet
Validated: 1
EndChar

StartChar: comma
Encoding: 44 44 84
Width: 384
Flags: W
HStem: 0 132<64 188> 260 124<64 188>
VStem: 64 124<0 132> 188 132<132 260>
LayerCount: 2
Fore
SplineSet
320 384 m 5xd0
 320 132 l 5xd0
 188 132 l 5xe0
 188 260 l 5xd0
 64 260 l 5
 64 384 l 5xe0
 320 384 l 5xd0
64 0 m 5xe0
 64 132 l 5
 188 132 l 5
 188 0 l 5
 64 0 l 5xe0
EndSplineSet
Validated: 5
EndChar

StartChar: hyphen
Encoding: 45 45 85
Width: 896
Flags: W
HStem: 576.022 128<64 832>
LayerCount: 2
Fore
SplineSet
64 704.022460938 m 6
 832 704.022460938 l 5
 832 576.022460938 l 5
 64 576.022460938 l 5
 64 704.022460938 l 6
EndSplineSet
Validated: 1
EndChar

StartChar: period
Encoding: 46 46 86
Width: 384
Flags: W
HStem: 0 256<64 320>
VStem: 64 256<0 256>
LayerCount: 2
Fore
SplineSet
64 256 m 5
 320 256 l 5
 320 0 l 5
 64 0 l 5
 64 256 l 5
EndSplineSet
Validated: 1
EndChar

StartChar: colon
Encoding: 58 58 87
Width: 384
Flags: W
HStem: 316.022 260<64 320> 704.022 252<64 320>
VStem: 64 256<316.022 576.022 704.022 956.022>
LayerCount: 2
Fore
SplineSet
64 704.022460938 m 5
 64 956.022460938 l 5
 320 956.022460938 l 5
 320 704.022460938 l 5
 64 704.022460938 l 5
64 316.022460938 m 5
 64 576.022460938 l 5
 320 576.022460938 l 5
 320 316.022460938 l 5
 64 316.022460938 l 5
EndSplineSet
Validated: 1
EndChar

StartChar: semicolon
Encoding: 59 59 88
Width: 384
Flags: W
HStem: 188.022 132<64 188> 448.022 128<64 188> 704.022 252<64 320>
VStem: 64 124<188.022 320.022> 188 132<320.022 448.022>
LayerCount: 2
Fore
SplineSet
64 704.022460938 m 5xf0
 64 956.022460938 l 5xf0
 320 956.022460938 l 5
 320 704.022460938 l 5xe8
 64 704.022460938 l 5xf0
320 576.022460938 m 5xe8
 320 320.022460938 l 5xe8
 188 320.022460938 l 5xf0
 188 448.022460938 l 5xe8
 64 448.022460938 l 5
 64 576.022460938 l 5xf0
 320 576.022460938 l 5xe8
64 188.022460938 m 5xf0
 64 320.022460938 l 5
 188 320.022460938 l 5
 188 188.022460938 l 5
 64 188.022460938 l 5xf0
EndSplineSet
Validated: 5
EndChar

StartChar: equal
Encoding: 61 61 89
Width: 896
Flags: W
HStem: 444.022 132<64 832> 704.022 124<64 832>
LayerCount: 2
Fore
SplineSet
64 704.022460938 m 5
 64 828.022460938 l 5
 832 828.022460938 l 5
 832 704.022460938 l 5
 64 704.022460938 l 5
64 444.022460938 m 5
 64 576.022460938 l 5
 832 576.022460938 l 5
 832 444.022460938 l 5
 64 444.022460938 l 5
EndSplineSet
Validated: 1
EndChar

StartChar: asciicircum
Encoding: 94 94 90
Width: 768
Flags: W
HStem: 704 388<64 188 572 704> 1092 124<316 444>
VStem: 64 252<704 1092> 444 260<704 1092>
LayerCount: 2
Fore
SplineSet
704 1092 m 5xb0
 704 704 l 5
 444 704 l 5xb0
 444 1092 l 5
 316 1092 l 5x70
 316 704 l 5
 64 704 l 5
 64 1092 l 5
 188 1092 l 5xb0
 188 1216 l 5
 572 1216 l 5x70
 572 1092 l 5
 704 1092 l 5xb0
EndSplineSet
Validated: 1
EndChar

StartChar: underscore
Encoding: 95 95 91
Width: 896
Flags: W
HStem: 0 128<64 832>
LayerCount: 2
Fore
SplineSet
64 128 m 6
 832 128 l 5
 832 0 l 5
 64 0 l 5
 64 128 l 6
EndSplineSet
Validated: 1
EndChar

StartChar: grave
Encoding: 96 96 92
Width: 512
Flags: W
HStem: 832 384<188 316>
VStem: 64 384<964 1092>
LayerCount: 2
Fore
SplineSet
448 1092 m 5
 448 832 l 5
 188 832 l 5
 188 964 l 5
 64 964 l 5
 64 1216 l 5
 316 1216 l 5
 316 1092 l 5
 448 1092 l 5
EndSplineSet
Validated: 1
EndChar

StartChar: asciitilde
Encoding: 126 126 93
Width: 1280
Flags: W
HStem: 444 260<64 188 700 956> 576 252<316 572 1084 1216>
LayerCount: 2
Fore
SplineSet
1216 828 m 5x40
 1216 576 l 5
 1084 576 l 5x40
 1084 444 l 5
 572 444 l 5x80
 572 576 l 5
 316 576 l 5x40
 316 444 l 5
 64 444 l 5
 64 704 l 5
 188 704 l 5x80
 188 828 l 5
 700 828 l 5x40
 700 704 l 5
 956 704 l 5x80
 956 828 l 5
 1216 828 l 5x40
EndSplineSet
Validated: 1
EndChar

